<mxfile host="app.diagrams.net" modified="2023-05-14T15:06:42.699Z" agent="Mozilla/5.0 (Macintosh; Intel Mac OS X 10_15_7) AppleWebKit/537.36 (KHTML, like Gecko) Chrome/113.0.0.0 Safari/537.36" version="21.3.0" etag="2Gm5JXa1bfPojMWQwwqy" type="github">
  <diagram name="Page-1" id="zNKefs-YkIFt9MyX63DY">
    <mxGraphModel>
      <root>
        <mxCell id="0" />
        <mxCell id="1" parent="0" />
      </root>
    </mxGraphModel>
  </diagram>
</mxfile>
